<?xml version="1.0" encoding="utf-8"?>
<!-- Generator: Adobe Illustrator 24.1.0, SVG Export Plug-In . SVG Version: 6.00 Build 0)  -->
<svg version="1.1" id="Layer_1" xmlns="http://www.w3.org/2000/svg" xmlns:xlink="http://www.w3.org/1999/xlink" x="0px" y="0px"
	 viewBox="0 0 512 512" style="enable-background:new 0 0 512 512;" xml:space="preserve">
<style type="text/css">
	.st0{fill:#71AF2C;}
	.st1{fill:#FFD039;}
	.st2{fill:#215C29;stroke:#215C29;stroke-width:1.000000e-03;stroke-miterlimit:10;}
	.st3{fill:#FFFFFF;}
</style>
<g>
	<path class="st0" d="M473.7,88.3H38.3C17.2,88.3,0,105.4,0,126.6V256h512V126.6C512,105.4,494.8,88.3,473.7,88.3z"/>
	<path class="st0" d="M0,385.4c0,21.2,17.2,38.3,38.3,38.3h435.3c21.2,0,38.3-17.2,38.3-38.3V256H0V385.4z"/>
</g>
<g>
	<path class="st1" d="M256,337.3c2.3,0,4.6-0.1,6.3-0.2c0.7-0.1,1.3,0.5,1.3,1.2v0.9c3.3-0.3,7.4-0.9,10.7-1.7l-0.3-0.9
		c-0.2-0.7,0.1-1.4,0.8-1.6c3.6-0.9,8.9-2.6,12-3.9c0.7-0.3,1.4,0.1,1.6,0.8l0.3,0.9c3-1.3,6.8-3.2,9.6-4.9l-0.5-0.7
		c-0.4-0.6-0.3-1.4,0.3-1.7c3.1-1.9,7.7-5.3,10.2-7.4c0.5-0.5,1.4-0.3,1.8,0.2l0.5,0.7c2.5-2.2,5.5-5.1,7.6-7.6l-0.7-0.5
		c-0.6-0.4-0.7-1.2-0.3-1.7c2.4-2.8,5.7-7.4,7.4-10.2c0.4-0.6,1.2-0.7,1.8-0.3l0.7,0.5c1.7-2.8,3.6-6.6,4.9-9.6l-0.9-0.3
		c-0.7-0.2-1.1-0.9-0.8-1.6c1.4-3.4,3.1-8.8,3.9-12c0.2-0.7,0.9-1.1,1.6-0.9l0.9,0.3c0.7-3.2,1.4-7.4,1.7-10.7l-0.9,0
		c-0.7,0-1.3-0.5-1.2-1.2c0.3-3.7,0.3-9.3,0-12.6c-0.1-0.7,0.5-1.3,1.2-1.3h0.9c-0.3-3.3-0.9-7.4-1.7-10.7l-0.9,0.3
		c-0.7,0.2-1.4-0.1-1.6-0.8c-0.9-3.6-2.6-8.9-3.9-12c-0.3-0.7,0.1-1.4,0.8-1.6l0.9-0.3c-1.3-3-3.2-6.8-4.9-9.6l-0.7,0.5
		c-0.6,0.4-1.4,0.3-1.7-0.3c-1.9-3.1-5.3-7.7-7.4-10.2c-0.5-0.5-0.3-1.4,0.2-1.8l0.7-0.5c-2.2-2.5-5.1-5.5-7.6-7.6l-0.5,0.7
		c-0.4,0.6-1.2,0.7-1.7,0.3c-2.8-2.4-7.4-5.7-10.2-7.4c-0.6-0.4-0.7-1.2-0.3-1.8l0.5-0.7c-2.8-1.7-6.6-3.6-9.6-4.9l-0.3,0.9
		c-0.2,0.7-0.9,1.1-1.6,0.8c-3.4-1.4-8.8-3.1-12-3.9c-0.7-0.2-1.1-0.9-0.9-1.6l0.3-0.9c-3.2-0.7-7.4-1.4-10.7-1.7l0,0.9
		c0,0.7-0.5,1.3-1.2,1.2c-3.7-0.3-9.3-0.3-12.6,0c-0.7,0.1-1.3-0.5-1.3-1.2v-0.9c-3.3,0.3-7.4,0.9-10.7,1.7l0.3,0.9
		c0.2,0.7-0.1,1.4-0.8,1.6c-3.6,0.9-8.9,2.6-12,3.9c-0.7,0.3-1.4-0.1-1.6-0.8l-0.3-0.9c-3,1.3-6.8,3.2-9.6,4.9l0.5,0.8
		c0.4,0.6,0.3,1.4-0.3,1.7c-3.1,1.9-7.7,5.3-10.2,7.4c-0.5,0.5-1.4,0.3-1.8-0.2l-0.5-0.7c-2.5,2.2-5.5,5.1-7.6,7.6l0.7,0.5
		c0.6,0.4,0.7,1.2,0.3,1.7c-2.4,2.8-5.7,7.4-7.4,10.2c-0.4,0.6-1.2,0.7-1.8,0.3l-0.7-0.5c-1.7,2.8-3.6,6.6-4.9,9.6l0.9,0.3
		c0.7,0.2,1.1,0.9,0.8,1.6c-1.4,3.4-3.1,8.8-3.9,12c-0.2,0.7-0.9,1.1-1.6,0.9l-0.9-0.3c-0.7,3.2-1.4,7.4-1.7,10.7l0.9,0
		c0.7,0,1.3,0.5,1.2,1.2c-0.3,3.7-0.3,9.3,0,12.6c0.1,0.7-0.5,1.3-1.2,1.3h-0.9c0.3,3.3,0.9,7.4,1.7,10.7l0.9-0.3
		c0.7-0.2,1.4,0.1,1.6,0.8c0.9,3.6,2.6,8.9,3.9,12c0.3,0.7-0.1,1.4-0.8,1.6l-0.9,0.3c1.3,3,3.2,6.8,4.9,9.6l0.7-0.5
		c0.6-0.4,1.4-0.3,1.7,0.3c1.9,3.1,5.3,7.7,7.4,10.2c0.5,0.5,0.3,1.4-0.2,1.8l-0.7,0.5c2.2,2.5,5.1,5.5,7.6,7.6l0.5-0.7
		c0.4-0.6,1.2-0.7,1.7-0.3c2.8,2.4,7.4,5.7,10.2,7.4c0.6,0.4,0.7,1.2,0.3,1.8l-0.5,0.7c2.8,1.7,6.6,3.6,9.6,4.9l0.3-0.9
		c0.2-0.7,0.9-1.1,1.6-0.8c3.4,1.4,8.8,3.1,12,3.9c0.7,0.2,1.1,0.9,0.9,1.6l-0.3,0.9c3.2,0.7,7.4,1.4,10.7,1.7l0-0.9
		c0-0.7,0.5-1.3,1.2-1.2C251.5,337.3,253.8,337.3,256,337.3v6.9c-2.1,0-4.2-0.1-6.3-0.2c-0.7-0.1-1.3-1.3-1.3-2
		c-3.5-0.3-8.6-1.5-11.4-2.2l-0.3,1c-0.2,0.7-0.9,1-1.6,0.8c-3.5-0.9-8-2.2-11.9-3.9c-0.7-0.3-1.1-1-0.8-1.6l0.3-1
		c-3.3-1.4-7.8-3.7-10.3-5.2l-0.6,0.9c-0.4,0.6-1.2,0.7-1.8,0.3c-3.1-1.9-6.9-4.6-10.1-7.4c-0.5-0.5-0.7-1.2-0.3-1.8l0.6-0.9
		c-2.7-2.3-6.3-6-8.1-8.2l-0.9,0.6c-0.6,0.4-1.4,0.3-1.8-0.3c-2.3-2.8-5.2-6.5-7.4-10.1c-0.4-0.6-0.3-1.4,0.3-1.8l0.9-0.6
		c-1.8-3.1-4.2-7.6-5.2-10.3l-1,0.3c-0.7,0.2-1.4-0.2-1.6-0.8c-1.4-3.4-2.9-7.8-3.9-11.9c-0.2-0.7,0.2-1.4,0.8-1.6l1-0.3
		c-0.8-3.5-1.6-8.5-1.8-11.4h-1.1c-0.7,0-1.2-0.6-1.3-1.3c-0.3-3.6-0.4-8.3,0-12.5c0.1-0.7,0.6-1.3,1.3-1.3l1.1,0
		c0.3-3.5,1.1-8.6,1.8-11.4l-1-0.3c-0.7-0.2-1-0.9-0.8-1.6c0.9-3.5,2.2-8,3.9-11.9c0.3-0.7,1-1.1,1.6-0.8l1,0.3
		c1.4-3.3,3.7-7.8,5.2-10.3l-0.9-0.6c-0.6-0.4-0.7-1.2-0.3-1.8c1.9-3.1,4.6-6.9,7.4-10.1c0.5-0.5,1.2-0.7,1.8-0.3l0.9,0.6
		c2.3-2.7,6-6.3,8.2-8.1l-0.6-0.9c-0.4-0.6-0.3-1.4,0.3-1.8c2.8-2.3,6.5-5.2,10.1-7.4c0.6-0.4,1.4-0.3,1.8,0.3l0.6,0.9
		c3-1.8,7.6-4.2,10.3-5.2l-0.3-1c-0.2-0.7,0.2-1.4,0.8-1.6c3.4-1.4,7.8-2.9,11.9-3.9c0.7-0.2,1.4,0.2,1.6,0.8l0.3,1
		c3.5-0.8,8.5-1.6,11.4-1.8v-1.1c0-0.7,0.6-1.2,1.3-1.3c3.6-0.3,8.3-0.4,12.5,0c0.7,0.1,1.3,0.6,1.3,1.3l0,1.1
		c3.5,0.3,8.6,1.1,11.4,1.8l0.3-1c0.2-0.7,0.9-1,1.6-0.8c3.5,0.9,8,2.2,11.9,3.9c0.7,0.3,1.1,1,0.8,1.6l-0.3,1
		c3.3,1.4,7.8,3.7,10.3,5.2l0.6-0.9c0.4-0.6,1.2-0.7,1.8-0.3c3.1,1.9,6.9,4.6,10.1,7.4c0.5,0.5,0.7,1.2,0.3,1.8l-0.6,0.9
		c2.7,2.3,6.3,6,8.1,8.2l0.9-0.6c0.6-0.4,1.4-0.3,1.8,0.3c2.3,2.8,5.2,6.5,7.4,10.1c0.4,0.6,0.3,1.4-0.3,1.8l-0.9,0.6
		c1.8,3.1,4.2,7.6,5.2,10.3l1-0.3c0.7-0.2,1.4,0.2,1.6,0.8c1.4,3.4,2.9,7.8,3.9,11.9c0.2,0.7-0.2,1.4-0.8,1.6l-1,0.3
		c0.8,3.5,1.6,8.5,1.8,11.4h1.1c0.7,0,1.2,0.6,1.3,1.3c0.3,3.6,0.4,8.3,0,12.5c-0.1,0.7-0.6,1.3-1.3,1.3l-1.1,0
		c-0.3,3.5-1.1,8.6-1.8,11.4l1,0.3c0.7,0.2,1,0.9,0.8,1.6c-0.9,3.5-2.2,8-3.9,11.9c-0.3,0.7-1,1.1-1.6,0.8l-1-0.3
		c-1.4,3.3-3.7,7.8-5.2,10.3l0.9,0.6c0.6,0.4,0.7,1.2,0.3,1.8c-1.9,3.1-4.6,6.9-7.4,10.1c-0.5,0.5-1.2,0.7-1.8,0.3l-0.9-0.6
		c-2.3,2.7-6,6.3-8.2,8.1l0.6,0.9c0.4,0.6,0.3,1.4-0.3,1.8c-2.8,2.3-6.5,5.2-10.1,7.4c-0.6,0.4-1.4,0.3-1.8-0.3l-0.6-0.9
		c-3.1,1.8-7.6,4.2-10.3,5.2l0.3,1c0.2,0.7-0.2,1.4-0.8,1.6c-3.4,1.4-7.8,2.9-11.9,3.9c-0.7,0.2-1.4-0.2-1.6-0.8l-0.3-1
		c-3.5,0.8-8.5,1.6-11.4,1.8v1.1c0,0.7-0.6,1.2-1.3,1.3c-1.9,0.1-4,0.2-6.3,0.2V337.3L256,337.3z"/>
	<path class="st2" d="M260.6,175.3c0.5,0,1-0.3,1-0.7v-2.3c0-0.4-0.4-0.7-1-0.7h-9.3c-0.5,0-1,0.3-1,0.7v2.3c0,0.4,0.4,0.7,1,0.7
		H260.6L260.6,175.3z"/>
	<path class="st2" d="M235.2,177.8c0.5-0.2,0.8-0.6,0.7-1l-0.7-2.2c-0.1-0.4-0.6-0.5-1.1-0.4l-8.8,2.9c-0.5,0.2-0.8,0.6-0.7,1
		l0.7,2.2c0.1,0.4,0.6,0.5,1.1,0.4L235.2,177.8L235.2,177.8z"/>
	<path class="st2" d="M211.7,188.1c0.4-0.3,0.6-0.8,0.4-1.1l-1.3-1.9c-0.2-0.3-0.8-0.3-1.2,0l-7.5,5.5c-0.4,0.3-0.6,0.8-0.4,1.1
		l1.3,1.9c0.2,0.3,0.8,0.3,1.2,0L211.7,188.1L211.7,188.1z"/>
	<path class="st2" d="M192.6,205.2c0.3-0.4,0.3-1,0-1.2l-1.9-1.3c-0.3-0.2-0.8-0.1-1.1,0.4l-5.5,7.5c-0.3,0.4-0.3,1,0,1.2l1.9,1.3
		c0.3,0.2,0.8,0.1,1.1-0.4L192.6,205.2L192.6,205.2z"/>
	<path class="st2" d="M179.7,227.3c0.2-0.5,0-1-0.4-1.1l-2.2-0.7c-0.4-0.1-0.8,0.2-1,0.7l-2.9,8.8c-0.2,0.5,0,1,0.4,1.1l2.2,0.7
		c0.4,0.1,0.8-0.2,1-0.7L179.7,227.3L179.7,227.3z"/>
	<path class="st2" d="M174.3,252.3c0-0.5-0.3-1-0.7-1h-2.3c-0.4,0-0.7,0.4-0.7,1v9.3c0,0.5,0.3,1,0.7,1h2.3c0.4,0,0.7-0.4,0.7-1
		V252.3L174.3,252.3z"/>
	<path class="st2" d="M176.9,277.8c-0.2-0.5-0.6-0.8-1-0.7l-2.2,0.7c-0.4,0.1-0.5,0.6-0.4,1.1l2.9,8.8c0.2,0.5,0.6,0.8,1,0.7
		l2.2-0.7c0.4-0.1,0.5-0.6,0.4-1.1L176.9,277.8L176.9,277.8z"/>
	<path class="st2" d="M187.2,301.2c-0.3-0.4-0.8-0.6-1.1-0.4l-1.9,1.3c-0.3,0.2-0.3,0.8,0,1.2l5.5,7.5c0.3,0.4,0.8,0.6,1.1,0.4
		l1.9-1.3c0.3-0.2,0.3-0.8,0-1.2L187.2,301.2L187.2,301.2z"/>
	<path class="st2" d="M204.2,320.3c-0.4-0.3-1-0.3-1.2,0l-1.3,1.9c-0.2,0.3-0.1,0.8,0.4,1.1l7.5,5.5c0.4,0.3,1,0.3,1.2,0l1.3-1.9
		c0.2-0.3,0.1-0.8-0.4-1.1L204.2,320.3L204.2,320.3z"/>
	<path class="st2" d="M226.3,333.2c-0.5-0.2-1,0-1.1,0.4l-0.7,2.2c-0.1,0.4,0.2,0.8,0.7,1l8.8,2.9c0.5,0.2,1,0,1.1-0.4l0.7-2.2
		c0.1-0.4-0.2-0.8-0.7-1L226.3,333.2L226.3,333.2z"/>
	<path class="st2" d="M251.4,338.7c-0.5,0-1,0.3-1,0.7l0,2.3c0,0.4,0.4,0.7,1,0.7l9.3,0c0.5,0,1-0.3,1-0.7v-2.3c0-0.4-0.4-0.7-1-0.7
		L251.4,338.7L251.4,338.7z"/>
	<path class="st2" d="M276.8,336.1c-0.5,0.2-0.8,0.6-0.7,1l0.7,2.2c0.1,0.4,0.6,0.5,1.1,0.4l8.8-2.9c0.5-0.2,0.8-0.6,0.7-1l-0.7-2.2
		c-0.1-0.4-0.6-0.5-1.1-0.4L276.8,336.1L276.8,336.1z"/>
	<path class="st2" d="M300.3,325.8c-0.4,0.3-0.6,0.8-0.4,1.1l1.3,1.9c0.2,0.3,0.8,0.3,1.2,0l7.5-5.5c0.4-0.3,0.6-0.8,0.4-1.1
		l-1.3-1.9c-0.2-0.3-0.8-0.3-1.2,0L300.3,325.8L300.3,325.8z"/>
	<path class="st2" d="M319.4,308.7c-0.3,0.4-0.3,1,0,1.2l1.9,1.3c0.3,0.2,0.8,0.1,1.1-0.4l5.5-7.5c0.3-0.4,0.3-1,0-1.2l-1.9-1.3
		c-0.3-0.2-0.8-0.1-1.1,0.4L319.4,308.7L319.4,308.7z"/>
	<path class="st2" d="M332.3,286.6c-0.2,0.5,0,1,0.4,1.1l2.2,0.7c0.4,0.1,0.8-0.2,1-0.7l2.9-8.8c0.2-0.5,0-1-0.4-1.1l-2.2-0.7
		c-0.4-0.1-0.8,0.2-1,0.7L332.3,286.6L332.3,286.6z"/>
	<path class="st2" d="M337.7,261.6c0,0.5,0.3,1,0.7,1h2.3c0.4,0,0.7-0.4,0.7-1v-9.3c0-0.5-0.3-1-0.7-1h-2.3c-0.4,0-0.7,0.4-0.7,1
		V261.6L337.7,261.6z"/>
	<path class="st2" d="M335.1,236.1c0.2,0.5,0.6,0.8,1,0.7l2.2-0.7c0.4-0.1,0.5-0.6,0.4-1.1l-2.9-8.8c-0.2-0.5-0.6-0.8-1-0.7
		l-2.2,0.7c-0.4,0.1-0.5,0.6-0.4,1.1L335.1,236.1L335.1,236.1z"/>
	<path class="st2" d="M324.8,212.7c0.3,0.4,0.8,0.6,1.1,0.4l1.9-1.3c0.3-0.2,0.3-0.8,0-1.2l-5.5-7.5c-0.3-0.4-0.8-0.6-1.1-0.4
		l-1.9,1.3c-0.3,0.2-0.3,0.8,0,1.2L324.8,212.7L324.8,212.7z"/>
	<path class="st2" d="M307.8,193.6c0.4,0.3,1,0.3,1.2,0l1.3-1.9c0.2-0.3,0.1-0.8-0.4-1.1l-7.5-5.5c-0.4-0.3-1-0.3-1.2,0l-1.3,1.9
		c-0.2,0.3-0.1,0.8,0.4,1.1L307.8,193.6L307.8,193.6z"/>
	<path class="st2" d="M285.7,180.7c0.5,0.2,1,0,1.1-0.4l0.7-2.2c0.1-0.4-0.2-0.8-0.7-1l-8.8-2.9c-0.5-0.2-1,0-1.1,0.4l-0.7,2.2
		c-0.1,0.4,0.2,0.8,0.7,1L285.7,180.7L285.7,180.7z"/>
	<path class="st3" d="M255.8,187.7c-3.9,1.9-4.4,1.5-3.6,3c0.7,1.4,1.6,0.6,4.9-0.8c2.5-1.1,4.1-1.4,3.4-3
		C259.7,185.3,259.3,186.1,255.8,187.7L255.8,187.7z"/>
	<path class="st3" d="M239.6,190.4c-2,2-1.5,1.8,0.1,3.5c1.6,1.7,1.7,1.7,3.2,0.2c1.4-1.5,2.1-1.5,0.4-3.6
		C241.6,188.5,241.4,188.5,239.6,190.4L239.6,190.4z"/>
	<path class="st3" d="M233.3,189.6c-1.9,1.9-1.4,1.7,0.1,3.2c1.5,1.5,1.6,1.6,3,0.2c1.4-1.4,2-1.4,0.4-3.2
		C235.1,187.9,234.9,187.9,233.3,189.6L233.3,189.6z"/>
	<path class="st3" d="M258.2,195.1c-2.1-0.8-5.1-2.3-9.8-1.2c-2.5,0.6-4.1,3.1-1.1,5.2c3,2.1,6.2,5,8,6.8c1.8,1.8,6.5,2.5,9.7,0.3
		c2.2-1.5,2.3-4.7-0.2-6.2c-2.5-1.4-4.4,0.1-4.9,1.4c-0.7,1.7,1.5,3,1.7,1.7c0.3-1.9,3.4-2.2,1.5,0.3c-0.6,0.9-3.1,2.9-5.8,0.9
		c-2.7-1.9-3.3-2.2-5.4-3.7c-2.1-1.5-6.3-4.5,0.5-4.7c6.8-0.2,3,3.4-1.8,5.3c-4.8,1.9-7.7-0.3-11.6-2.4c-4.1-2.1-5,0.7-5.9,2.9
		c-0.9,2.2-4.2,1.4-5.5,0.8c-1.3-0.6-3.7-0.6-1.4,2.6s7.9,0.7,8.7-1c1.2-2.6,2.5-3.7,7.5-0.7c2.8,1.7,8.1,1.7,10.7-0.9
		c2.6-2.6,4.7-3.7,5.7-4.2C259.7,197.9,260.4,195.9,258.2,195.1L258.2,195.1z"/>
	<path class="st3" d="M269.5,190.3c-0.5-1.6-4,0.4-3.7,1.6c1.4,6.5,3.2,12.2,5,15.3c1.8,3.1,4.9,3.6,9.9,1c4.9-2.5,9.6-5,5.5-7.8
		c-4.1-2.8-12.2-2.1-14,3.2c-1.8,5.3-3.3,11.5-1.7,12.2c1.6,0.7,3.2-3.5,3.6-6.9c0.3-3.4-0.2-6.4,5.2-6.9c5.4-0.6,5.9,1.1,3.4,2.8
		c-2.5,1.6-8.5,4-9.3,0.2C272.5,201.1,270.6,193.7,269.5,190.3L269.5,190.3z"/>
	<path class="st3" d="M281.3,210.3c-1.7,1.6-1.8,2.2-0.1,3.6c1.7,1.3,2,0.7,3.1-0.3c1.1-1,1.4-1.8,0.1-3
		C283.1,209.4,282.6,209.1,281.3,210.3L281.3,210.3z"/>
	<path class="st3" d="M289.5,217.3c-2.2,3.3-6,1.9-7.2,3.5c-0.9,1.2-1.3,7,0.5,4.7c3.1-4,6.6-3.2,7.3-4.6
		C291,219.4,291.1,215,289.5,217.3L289.5,217.3z"/>
	<path class="st3" d="M231.9,214.1c1.4,1.3,4.4,3.8,5.8,1.1c0.7-1.4,1.5-1.8,2.8-0.6c1.3,1.2,3.8,1.8,3.8-0.9c0-1.6,0.9-2.2,2-0.3
		c1.1,1.9-0.6,9.2-6.8,3.8c-4.6,4.6-7.6,1.8-8.2,0.3C231.7,216.3,231.9,214.7,231.9,214.1L231.9,214.1z"/>
	<path class="st3" d="M211.1,211.2c-1.9,2.1-1.1,2.2-0.1,3.5c1.1,1.3,1.7,2.2,3.5,0.7c1.8-1.5,2.1-2.2,0.5-4
		C213.4,209.8,212.5,209.7,211.1,211.2L211.1,211.2z"/>
	<path class="st3" d="M219.6,212.3c-2.2,1.9-2.1,2.1-0.1,4.2c2.1,2.1,2.1,1.8,3.8,0.2c1.8-1.6,2-1.9,0-3.9
		C221.4,210.8,221.3,210.8,219.6,212.3L219.6,212.3z"/>
	<path class="st3" d="M202.9,225.8c0,4.8,5,8.3,7.5,2.5c2.6-6.2,7.3-10.1,11.2-5c3.1,4,8.3,7.1,11.6,3.9c2.3-2.3,4-1.9,6.6,0.1
		c2.6,2.1,7.2,1.9,6.9-2.5c-0.1-1.7,0.6-2.8,1.9-0.3c1.3,2.5-0.1,7.4-4.8,7.8c-1.5,0.1-3.9,0.3-5.4-1.7c-1.5-1.9-2.4-1.8-4.2-0.2
		c-2.4,2.1-8.9,2-11.5-1.4c-4.1-5.3-6.3-5.8-8.5-1.7c-2.2,4.1-5.7,10-10.7,4.9c-2.6-2.6-1.9-5.1-1.9-6
		C201.7,225.3,202.9,224.7,202.9,225.8L202.9,225.8z"/>
	<path class="st3" d="M217.5,229.5c-4.1,1.7-5.2,6.5-1.6,8.7c2.2,1.3,3.2-1.9,1.6-2.8c-1.6-0.8-1.1-2.8,0.7-4.2
		C220,229.8,219.1,228.9,217.5,229.5L217.5,229.5z"/>
	<path class="st3" d="M251.5,264.2c-3.8-3.9-12-5-17.3-4.7c-6.4,0.3-11-4-12.4-9.4c-0.4-1.8-2.3-3.6-1.7,0.2
		c0.9,6.2,5.7,10.4,14.1,11.1c12.6,1,20.9,5.2,16,18.3c-3,8.1-18.1,12.7-25.9,4c-8.7-9.7-4.8-21.9,7.7-33.9c3.3-3.2,6.3-5.2,8.5-5.8
		c2.2-0.7,6.1-4.6,1.5-5.6c-6-1.4-14.9-0.6-20.6,2.5c-1.1,0.6-0.9,3.5,1.5,3.4c2.5-0.1,4.2-0.1,6.5,2.9c1.4,1.8,4.2,4.5,8.1,6.3
		c-8.7,3.9-8.2,15.9-0.4,22.2c7.8,6.3,22.8,5.5,31.3-3.2c15.8-16.3,0.1-27.7,7.8-44.2c0.8-1.7,1.5-3.1,0.2-4.1
		c-1.3-1-2.5-4.1-3.1-6.1c-0.6-1.9-1.2-1.6-1.6,1.3c-3.3,24.8,7.5,38.1-3.6,49.1c-11.9,11.9-21.4,9.3-29.1,3.7
		c-2.5-1.8-9.9-11.8,1.2-17.5c2,0.6,4.2,0.9,6.5,0.7c8.5-0.7,12.9-8.5,10.2-19.8c-0.6-2.4-2.4-7.1,0.6-7.6c1.4-0.2,0.7-1.1-0.1-2.5
		c-0.8-1.4-1.9-4.5-2.1-6.3c-0.1-1.8-0.9-1.1-1.5,1c-1.5,5.4-1.3,9.7-0.1,15.1c1.1,5.4,2,12.9-3.7,16.3c-10.2,6.2-18.5-6.9-21.3-7.7
		c-2.2-0.6-3.9-2.5,0.2-3.2c3.4-0.6,7.6-0.5,9.2-0.6c1.6-0.1,3.7,1,0.7,2.1c-6.6,2.3-11.9,8.4-15.7,13.2
		c-3.8,4.8-11.5,11.2-17.1,6.6c-5.6-4.6-3-10.3-0.2-13.9c1.1-1.5,1.3-2.4-0.8-3.1c-2.1-0.7-4.5-3.4,0.3-8.3c0.8-0.8-0.3-1.9-1.3-1.1
		c-4.3,3.8-6,7.9-0.6,11.6c-4.2,5.6-4.1,13.8-0.3,17c3.8,3.2,11.2,3.3,15.4-0.8c-3.8,9.9-1.7,27.3,15.8,28.1
		c17.5,0.8,21.9-15.2,18.9-24.3c9.2-5.7,20.4-7.8,27.3-12.8c6.9-5,13-10.5,10.5-21.1c-2.2-9.3-11.2-5.5-12.1-1.7
		c-0.7,3,0.1,7.1,5.6,8.2c2.8,0.6,2-1.4,0-2.5c-2-1-3.8-4.6-2.1-6.5c1.7-1.8,5.7-2.2,6.6,5.2c0.9,7.3-5.3,12.8-8.9,15.8
		C273.2,257.4,258.4,260.3,251.5,264.2L251.5,264.2z"/>
	<path class="st3" d="M210.7,244.4c-1.7,1.1-2.7,1.2-1,3.6c1.7,2.3,1.9,1.4,3.3,0.5c1.4-0.9,2.3-1,0.9-3.3
		C212.5,242.9,211.9,243.6,210.7,244.4L210.7,244.4z"/>
	<path class="st3" d="M208.5,251.5c-1.9,1.5-1.8,2.1-0.5,3.8c1.3,1.7,1.7,1.9,3.6,0.3c1.9-1.6,1.6-2,0.4-3.5
		C210.7,250.6,210.4,250,208.5,251.5L208.5,251.5z"/>
	<path class="st3" d="M227.2,271.8c-1.6,1.2-1.4,1.8-0.3,3.3c1,1.5,1.6,1.7,3,0.3c1.4-1.4,1.9-1.7,0.5-3.4
		C228.8,270.3,228.3,271,227.2,271.8L227.2,271.8z"/>
	<path class="st3" d="M285.1,234.7c0.5,0.4,0.9,0.6,1.2,0.3c0.3-0.2,0.3-1,0.1-1.4c-0.3-0.4-1-0.8-1.4-0.3
		C284.5,233.7,284.7,234.4,285.1,234.7L285.1,234.7z"/>
	<path class="st3" d="M284.4,272.8c-2.8,6.4-12.6,16.5-20.4,12.4c-8.4-4.4-3-15.4-0.5-23.6c2.5-8.3,0.6-25.2-0.9-30
		c-1.5-4.8-1.4-10-0.7-13.8c0.7-3.8,1.7-1.9,1.9,0.3c0.2,2.3,0.9,7.6,2.2,8.6c1.3,1,2.9,1.9,1.3,3.3c-1.6,1.4-1.7,5.8-0.8,13
		c0.9,7.1,1.4,16-1.6,22.5c-3,6.4-3.9,14.2,1.1,16.5c5,2.3,9.9-1.1,15.8-11.9c-3.9-7.8-5.3-19.6-3.2-25.3c0.8-2.4,3.3-2.6,2.6,1.1
		c-0.7,3.8-0.6,18.2,4.5,23.7c5,5.5,10.7,5,11.7-3c1.4-11,0.4-31.5-2.5-41.6c-0.5-1.6-0.6-2.9,0.8-4.1c1.4-1.3,2.6-3.4,2.8,0
		c0.1,3.4-0.5,5.1,3.4,9.9c23.5,28.3-3.6,73.5-52.8,63.6c-5.2-1-1.8-2.3,2.5-1.6c21.6,3.2,38-4.7,47.9-16.5
		c8.9-10.6,12.2-32.6,0.5-41c1.1,18.8,2.5,34.6-3.2,39.4C291.1,279.4,287,275.5,284.4,272.8L284.4,272.8z"/>
	<path class="st3" d="M290,253.9c-2.4,3.6-2.3,8.7,1.9,10c2.7,0.9,2.6-1.9,1-2.9c-1.6-1-2-2.9-0.9-4.9
		C292.7,255,291.4,251.9,290,253.9L290,253.9z"/>
	<path class="st3" d="M256,328.3c39.4,0,71.3-31.9,71.3-71.3c0-21.6-9.6-41-24.8-54c9.1,10.8,14.6,24.9,14.6,40.2
		c0,34.2-27.4,61.9-61.2,61.9c-33.8,0-61.2-27.7-61.2-61.9c0-15.3,5.5-29.4,14.6-40.2c-15.2,13.1-24.8,32.4-24.8,54
		C184.7,296.4,216.6,328.3,256,328.3L256,328.3z"/>
	<path class="st3" d="M250.9,146.5c-2.4-13.3-21.8-14.1-25-16.2c-3.5-2.3-3.1,0-1.7,3.6c3.5,9.2,15.6,13,21.1,14
		C249.9,148.6,251.3,149,250.9,146.5L250.9,146.5z"/>
	<path class="st3" d="M256.7,146.8c1.9-13.5-17.3-20-19.7-22.9c-2.6-3.3-3-1.3-1.9,2.5c2.4,8.1,10.8,17.4,15.8,20.1
		C255.1,148.6,256.4,149.3,256.7,146.8L256.7,146.8z"/>
	<path class="st3" d="M272.7,154.7c1.7-16.3-13.9-18.8-18-23.9c-2.7-3.3-2.9-1.5-2,2.3c1.9,8.1,9.7,17.9,14.4,20.8
		C270.9,156.3,272.4,157.2,272.7,154.7L272.7,154.7z"/>
	<path class="st3" d="M267.8,151.2c-16.2-10.7-27.6-4.7-32.3-5.2c-4.6-0.5-6,2.4,1.8,6.7c9.4,5.1,22.7,4.4,27.9,2.4
		C270.5,153,268.9,151.9,267.8,151.2L267.8,151.2z"/>
	<path class="st3" d="M292.2,158.4c-4.9-17.7-16.5-14.8-19.9-17c-3.3-2.1-3.8-1.5-3,2.4c1.4,7,13.3,14.6,19.3,17
		C290.6,161.6,293.4,162.5,292.2,158.4L292.2,158.4z"/>
	<path class="st3" d="M290,161.3c-14.1-11.3-24.9-2.7-29.3-4.1c-3.1-0.9-1.7,1.3-0.4,2.2c9,6.3,20.1,9.6,28.7,5.8
		C292.2,163.7,292.5,163.2,290,161.3L290,161.3z"/>
	<path class="st3" d="M320.2,172.8c0.2-11.1-22.8-15.7-27.5-22.6c-2.8-4.2-5.4-1.9-3.9,4.6c2.1,8.6,17.9,18.1,26.4,19.9
		C320.3,175.9,320.2,174.1,320.2,172.8L320.2,172.8z"/>
	<path class="st3" d="M319.5,174.7c-14.5-12.9-26.6-8.7-31.2-9.9c-4.5-1.1-6.3,1.5,0.8,6.9c8.5,6.5,21.8,7.7,27.3,6.4
		C321.9,176.8,320.5,175.6,319.5,174.7L319.5,174.7z"/>
	<path class="st3" d="M345.5,193.9c-4.3-19-17.3-22.8-20.4-26.4c-3.1-3.6-6.3-2.5-3.6,6c3.2,10.2,13.7,19.1,19.2,21.3
		C346.2,197,345.8,195.2,345.5,193.9L345.5,193.9z"/>
	<path class="st3" d="M345.2,196.4c-10.5-17-24.4-16.4-28.6-18.9c-4.2-2.4-7-0.4-1.5,7.1c6.5,8.9,19.7,14,25.8,14.3
		C346.9,199.3,346,197.6,345.2,196.4L345.2,196.4z"/>
	<path class="st3" d="M358.8,216.6c5.9-19.3-7.9-26.5-9.4-29.7c-1.5-3.2-3.1-3.2-4.1,0.2c-3.9,13.6,8.8,27.2,10.8,29.7
		C358,219.4,358.4,218.1,358.8,216.6L358.8,216.6z"/>
	<path class="st3" d="M355.8,222c-4.7-21.8-17.4-20.5-20.3-23.5c-3-3.1-3.4-0.9-2.9,3c1.4,10.5,14,17.8,19.8,21.3
		C354.2,223.8,356.5,225.2,355.8,222L355.8,222z"/>
	<path class="st3" d="M368.1,247.3c8.7-20.4-1.6-34.2-4.8-37.1c-3.2-3-5.3-4.3-4.2,0c1.5,6.2-3.4,22.4,4.1,34
		C365.7,248.1,366.2,251.9,368.1,247.3L368.1,247.3z"/>
	<path class="st3" d="M363.4,251.4c2.1-12.5-5.2-23.8-12.8-28.3c-4.5-2.6-4.7-2.1-4.6,1.8c0.2,11.5,11.1,21.2,14.3,26.5
		C363.4,256.4,363.2,252.6,363.4,251.4L363.4,251.4z"/>
	<path class="st3" d="M361.4,283.9c-6.3-23.7,7.1-37.1,11.1-39.9c4-2.8,6.4-3.8,4.6,0.7c-2.6,6.5,0.3,25-9.8,36.6
		C363.9,285.2,362.8,289.3,361.4,283.9L361.4,283.9z"/>
	<path class="st3" d="M363,278.8c5.3-20.6-6.4-32.2-9.9-34.6c-3.5-2.4-5.6-3.3-4,0.6c2.3,5.7-0.1,21.7,8.8,31.7
		C360.8,279.9,361.8,283.5,363,278.8L363,278.8z"/>
	<path class="st3" d="M356.4,269.2c-9.7,10.4-10,25.5-5.6,34.4c2.6,5.2,3.1,4.8,5.4,1.1c6.9-10.8,2.8-26.7,3-33.6
		C359.5,264.5,357.4,268.1,356.4,269.2L356.4,269.2z"/>
	<path class="st3" d="M372.2,285.6c0,14.2-8.7,25.9-18,29.4c-5.5,2.1-5.4,1.5-4.7-2.9c2.6-16,14.8-21.9,19.3-27.1
		C373.1,280,372.2,284.2,372.2,285.6L372.2,285.6z"/>
	<path class="st3" d="M339,328c15.6-14.2,7.3-24.3,8-33.6c0.4-5-1.7-3.7-3.4-1.9c-10.1,9.9-10.5,27.4-8.4,34.2
		C336.1,329.6,337.5,329.4,339,328L339,328z"/>
	<path class="st3" d="M360,318.8c-5.1,15.7-18.9,25.5-30.5,26.1c-6.8,0.3-6.5-0.3-4.2-4.9c8.7-16.8,24.3-18.9,31.1-23
		C363,312.9,360.5,317.1,360,318.8L360,318.8z"/>
	<path class="st3" d="M317.3,348.4c20.3-10.3,16.2-27.2,20.1-31.5c2.7-3-0.6-2.6-2.3-1.6c-11.9,7.1-21.6,18-21.7,29.9
		C313.4,349.6,313.8,350.2,317.3,348.4L317.3,348.4z"/>
	<path class="st3" d="M289.3,367.3c25.8,4,37.7-15.5,45.3-17.3c3.9-0.9,1-2.4-0.9-2.6c-17.2-2-39,6-45.6,15
		C285.5,366.1,285.5,366.7,289.3,367.3L289.3,367.3z"/>
	<path class="st3" d="M315.5,336.7c-5.1,17-24.4,30.9-39,32c-6.8,0.5-6.8-0.3-4.3-4.8c11.8-21,31.9-24.5,39-29.9
		C317.3,329.4,316,335.1,315.5,336.7L315.5,336.7z"/>
	<path class="st3" d="M261.1,146.5c2.4-13.3,21.8-14.1,25-16.2c3.5-2.3,3.1,0,1.7,3.6c-3.5,9.2-15.6,13-21.1,14
		C262.1,148.6,260.7,149,261.1,146.5L261.1,146.5z"/>
	<path class="st3" d="M255.3,146.8c-1.9-13.5,17.3-20,19.7-22.9c2.6-3.3,3-1.3,1.9,2.5c-2.4,8.1-10.8,17.4-15.8,20.1
		C256.9,148.6,255.6,149.3,255.3,146.8L255.3,146.8z"/>
	<path class="st3" d="M239.3,154.7c-1.7-16.3,13.9-18.8,18-23.9c2.7-3.3,2.9-1.5,2,2.3c-1.9,8.1-9.7,17.9-14.4,20.8
		C241.1,156.3,239.6,157.2,239.3,154.7L239.3,154.7z"/>
	<path class="st3" d="M244.2,151.2c16.2-10.7,27.6-4.7,32.3-5.2c4.6-0.5,6,2.4-1.8,6.7c-9.4,5.1-22.7,4.4-27.9,2.4
		C241.5,153,243.1,151.9,244.2,151.2L244.2,151.2z"/>
	<path class="st3" d="M219.8,158.4c4.9-17.7,16.5-14.8,19.9-17c3.3-2.1,3.8-1.5,3,2.4c-1.4,7-13.3,14.6-19.3,17
		C221.4,161.6,218.6,162.5,219.8,158.4L219.8,158.4z"/>
	<path class="st3" d="M222,161.3c14.1-11.3,24.9-2.7,29.3-4.1c3.1-0.9,1.7,1.3,0.4,2.2c-9,6.3-20.1,9.6-28.7,5.8
		C219.8,163.7,219.5,163.2,222,161.3L222,161.3z"/>
	<path class="st3" d="M191.8,172.8c-0.2-11.1,22.8-15.7,27.5-22.6c2.8-4.2,5.4-1.9,3.9,4.6c-2.1,8.6-17.9,18.1-26.4,19.9
		C191.7,175.9,191.8,174.1,191.8,172.8L191.8,172.8z"/>
	<path class="st3" d="M192.5,174.7c14.5-12.9,26.6-8.7,31.2-9.9c4.5-1.1,6.3,1.5-0.8,6.9c-8.5,6.5-21.8,7.7-27.3,6.4
		C190.1,176.8,191.5,175.6,192.5,174.7L192.5,174.7z"/>
	<path class="st3" d="M166.5,193.9c4.3-19,17.3-22.8,20.4-26.4c3.1-3.6,6.3-2.5,3.6,6c-3.2,10.2-13.7,19.1-19.2,21.3
		C165.8,197,166.2,195.2,166.5,193.9L166.5,193.9z"/>
	<path class="st3" d="M166.8,196.4c10.5-17,24.4-16.4,28.6-18.9c4.2-2.4,7-0.4,1.5,7.1c-6.5,8.9-19.7,14-25.8,14.3
		C165.1,199.3,166,197.6,166.8,196.4L166.8,196.4z"/>
	<path class="st3" d="M153.2,216.6c-5.9-19.3,7.9-26.5,9.4-29.7c1.5-3.2,3.1-3.2,4.1,0.2c3.9,13.6-8.8,27.2-10.8,29.7
		C154,219.4,153.6,218.1,153.2,216.6L153.2,216.6z"/>
	<path class="st3" d="M156.2,222c4.7-21.8,17.4-20.5,20.3-23.5c3-3.1,3.4-0.9,2.9,3c-1.4,10.5-14,17.8-19.8,21.3
		C157.8,223.8,155.5,225.2,156.2,222L156.2,222z"/>
	<path class="st3" d="M143.9,247.3c-8.7-20.4,1.6-34.2,4.8-37.1c3.2-3,5.3-4.3,4.2,0c-1.5,6.2,3.4,22.4-4.1,34
		C146.3,248.1,145.8,251.9,143.9,247.3L143.9,247.3z"/>
	<path class="st3" d="M148.6,251.4c-2.1-12.5,5.2-23.8,12.8-28.3c4.5-2.6,4.7-2.1,4.6,1.8c-0.2,11.5-11.1,21.2-14.3,26.5
		C148.6,256.4,148.8,252.6,148.6,251.4L148.6,251.4z"/>
	<path class="st3" d="M150.6,283.9c6.3-23.7-7.1-37.1-11.1-39.9c-4-2.8-6.4-3.8-4.6,0.7c2.6,6.5-0.3,25,9.8,36.6
		C148.1,285.2,149.2,289.3,150.6,283.9L150.6,283.9z"/>
	<path class="st3" d="M149,278.8c-5.3-20.6,6.4-32.2,9.9-34.6c3.5-2.4,5.6-3.3,4,0.6c-2.3,5.7,0.1,21.7-8.8,31.7
		C151.2,279.9,150.2,283.5,149,278.8L149,278.8z"/>
	<path class="st3" d="M155.6,269.2c9.7,10.4,10,25.5,5.6,34.4c-2.6,5.2-3.1,4.8-5.4,1.1c-6.9-10.8-2.8-26.7-3-33.6
		C152.5,264.5,154.6,268.1,155.6,269.2L155.6,269.2z"/>
	<path class="st3" d="M139.8,285.6c0,14.2,8.7,25.9,18,29.4c5.5,2.1,5.4,1.5,4.7-2.9c-2.6-16-14.8-21.9-19.3-27.1
		C138.9,280,139.8,284.2,139.8,285.6L139.8,285.6z"/>
	<path class="st3" d="M173,328c-15.6-14.2-7.3-24.3-8-33.6c-0.4-5,1.7-3.7,3.4-1.9c10.1,9.9,10.5,27.4,8.4,34.2
		C175.9,329.6,174.5,329.4,173,328L173,328z"/>
	<path class="st3" d="M152,318.8c5.1,15.7,18.9,25.5,30.5,26.1c6.8,0.3,6.5-0.3,4.2-4.9c-8.7-16.8-24.3-18.9-31.1-23
		C149,312.9,151.5,317.1,152,318.8L152,318.8z"/>
	<path class="st3" d="M194.7,348.4c-20.3-10.3-16.2-27.2-20.1-31.5c-2.7-3,0.6-2.6,2.2-1.6c11.9,7.1,21.6,18,21.7,29.9
		C198.6,349.6,198.2,350.2,194.7,348.4L194.7,348.4z"/>
	<path class="st3" d="M222.7,367.3c-25.8,4-37.7-15.5-45.3-17.3c-3.9-0.9-1-2.4,0.9-2.6c17.2-2,39,6,45.6,15
		C226.5,366.1,226.5,366.7,222.7,367.3L222.7,367.3z"/>
	<path class="st3" d="M196.5,336.7c5.1,17,24.4,30.9,39,32c6.8,0.5,6.8-0.3,4.3-4.8c-11.8-21-31.9-24.5-39-29.9
		C194.7,329.4,196,335.1,196.5,336.7L196.5,336.7z"/>
	<path class="st2" d="M286.3,163c-3.4-2.5-16-1.1-18.2-2.8C272.5,164,282.4,161.3,286.3,163L286.3,163z"/>
	<path class="st2" d="M316.4,169.4c-2.8-4.8-18.6-8-21-12.4C299.7,165.3,311.9,164.1,316.4,169.4L316.4,169.4z"/>
	<path class="st2" d="M314,175c-5.7-5.8-19.6-3.6-23.7-6.9C300,176.8,305.3,170.1,314,175L314,175z"/>
	<path class="st2" d="M279.5,149.5c3.8,2,8.5,3.9,10.7,8.5c-2.6-3.5-7.5-4.9-11.5-7.9C279,150,279.4,149.7,279.5,149.5L279.5,149.5z
		"/>
	<path class="st2" d="M338.2,186.4c-2.3-5.3-10.4-11.2-11.2-13.3C329.4,180.1,336,181.8,338.2,186.4L338.2,186.4z"/>
	<path class="st2" d="M340.4,195.9c-7.2-11.3-18.3-10-22.9-14.3C320.9,185.7,333.8,188.4,340.4,195.9L340.4,195.9z"/>
	<path class="st2" d="M357,213.2c0.6-11.9-8.4-16.5-8.7-23.2C348.1,197.9,357.3,208.9,357,213.2L357,213.2z"/>
	<path class="st2" d="M352.5,219.6c-1.8-10.4-14-11-16-17.2C336.5,208.1,350.7,214,352.5,219.6L352.5,219.6z"/>
	<path class="st2" d="M362.6,213.6c6.4,8,1.8,19.9,4.6,28.7C364,235.9,365.6,219.8,362.6,213.6L362.6,213.6z"/>
	<path class="st2" d="M352.1,247.3c9.6,10.3,5.7,22,9.6,27.1C356.9,267.3,357.6,253.8,352.1,247.3L352.1,247.3z"/>
	<path class="st2" d="M372,248.7c-8.3,9.2-3.2,22.9-7.6,29.3C369.3,272.6,368.6,255.6,372,248.7L372,248.7z"/>
	<path class="st2" d="M361.7,248.7c-1.1-10.5-11-16-11.9-21.8C348.9,232.7,359.4,241.6,361.7,248.7L361.7,248.7z"/>
	<path class="st2" d="M356.6,273.9c1.6,7.3-4.4,23.2-2.5,28C350.2,293.4,357.6,277.6,356.6,273.9L356.6,273.9z"/>
	<path class="st2" d="M369.3,290.7c-3.9,13.1-11.7,12.2-14.2,20.2C356.9,303.3,367.2,296.4,369.3,290.7L369.3,290.7z"/>
	<path class="st2" d="M343.8,296.9c-5.3,8.7-0.9,18.8-5.3,25C344.7,315.7,341.5,304,343.8,296.9L343.8,296.9z"/>
	<path class="st2" d="M356.2,320.7c-6.2,11.7-19,10.5-24.3,19C337.2,329.2,353,327.4,356.2,320.7L356.2,320.7z"/>
	<path class="st2" d="M333.5,319.3c-11,7.8-7.6,15.8-16.1,24.3C328,335.2,327.1,325.5,333.5,319.3L333.5,319.3z"/>
	<path class="st2" d="M328.4,350.5c-10.8-0.5-26.1,13.5-35.5,12.4C302.3,365,319.5,352.3,328.4,350.5L328.4,350.5z"/>
	<path class="st2" d="M311,337.9c-0.7,11-28.7,17.9-31.6,25.2C282.8,353.5,307.4,346.4,311,337.9L311,337.9z"/>
	<path class="st2" d="M248,136.8c-3.6-3-7.9-5.6-9.1-8.5c0.8,3.8,4.4,6.7,7.9,9.5C247.3,137.6,247.6,137,248,136.8L248,136.8z"/>
	<path class="st2" d="M241.9,140.1c-5.5-2.8-12.1-2.6-14.8-6.3c1.8,3.7,7.7,5.2,13,7.1C240.6,140.7,241.4,140.3,241.9,140.1
		L241.9,140.1z"/>
	<path class="st2" d="M225.7,163c3.4-2.5,16-1.1,18.2-2.8C239.5,164,229.6,161.3,225.7,163L225.7,163z"/>
	<path class="st2" d="M195.6,169.4c2.8-4.8,18.6-8,21-12.4C212.3,165.3,200.1,164.1,195.6,169.4L195.6,169.4z"/>
	<path class="st2" d="M198,175c5.7-5.8,19.6-3.6,23.7-6.9C212,176.8,206.7,170.1,198,175L198,175z"/>
	<path class="st2" d="M221.7,158c3.4-7.1,13-7.9,15.5-12.3C233.4,152.3,225.3,153.2,221.7,158L221.7,158z"/>
	<path class="st2" d="M249.1,151.9c9.9-4.6,19.6-0.7,24.3-2.9C267.7,152,254.1,150.6,249.1,151.9L249.1,151.9z"/>
	<path class="st2" d="M173.8,186.4c2.3-5.3,10.4-11.2,11.2-13.3C182.6,180.1,176,181.8,173.8,186.4L173.8,186.4z"/>
	<path class="st2" d="M171.6,195.9c7.2-11.3,18.3-10,22.9-14.3C191.1,185.7,178.2,188.4,171.6,195.9L171.6,195.9z"/>
	<path class="st2" d="M155,213.2c-0.6-11.9,8.4-16.5,8.7-23.2C163.9,197.9,154.7,208.9,155,213.2L155,213.2z"/>
	<path class="st2" d="M159.5,219.6c1.8-10.4,14-11,16-17.2C175.5,208.1,161.3,214,159.5,219.6L159.5,219.6z"/>
	<path class="st2" d="M149.4,213.6c-6.4,8-1.8,19.9-4.6,28.7C148,235.9,146.4,219.8,149.4,213.6L149.4,213.6z"/>
	<path class="st2" d="M159.9,247.3c-9.6,10.3-5.7,22-9.6,27.1C155.1,267.3,154.4,253.8,159.9,247.3L159.9,247.3z"/>
	<path class="st2" d="M140,248.7c8.3,9.2,3.2,22.9,7.6,29.3C142.7,272.6,143.4,255.6,140,248.7L140,248.7z"/>
	<path class="st2" d="M150.3,248.7c1.1-10.5,11-16,11.9-21.8C163.1,232.7,152.6,241.6,150.3,248.7L150.3,248.7z"/>
	<path class="st2" d="M155.4,273.9c-1.6,7.3,4.4,23.2,2.5,28C161.8,293.4,154.4,277.6,155.4,273.9L155.4,273.9z"/>
	<path class="st2" d="M142.7,290.7c3.9,13.1,11.7,12.2,14.2,20.2C155.1,303.3,144.8,296.4,142.7,290.7L142.7,290.7z"/>
	<path class="st2" d="M168.2,296.9c5.3,8.7,0.9,18.8,5.3,25C167.3,315.7,170.5,304,168.2,296.9L168.2,296.9z"/>
	<path class="st2" d="M155.8,320.7c6.2,11.7,19,10.5,24.3,19C174.8,329.2,159,327.4,155.8,320.7L155.8,320.7z"/>
	<path class="st2" d="M178.5,319.3c11,7.8,7.6,15.8,16,24.3C184,335.2,184.9,325.5,178.5,319.3L178.5,319.3z"/>
	<path class="st2" d="M183.6,350.5c10.8-0.5,26.1,13.5,35.5,12.4C209.7,365,192.5,352.3,183.6,350.5L183.6,350.5z"/>
	<path class="st2" d="M201,337.9c0.7,11,28.7,17.9,31.6,25.2C229.2,353.5,204.6,346.4,201,337.9L201,337.9z"/>
	<path class="st2" d="M241.6,152.2c2.2-9.6,12.8-11.5,14.2-17.1C255.3,141.2,242.6,148,241.6,152.2L241.6,152.2z"/>
	<path class="st2" d="M273.1,128.4c-1.6,7.2-13.2,11.3-14.8,16.9C258.9,137.8,270.9,133.5,273.1,128.4L273.1,128.4z"/>
	<path class="st2" d="M264,145.5c5.5-8.9,17-6.5,20.9-11.7C282,139.8,268,140,264,145.5L264,145.5z"/>
	<path class="st3" d="M246.4,367.9c-15.7,7.9-35.4,5.7-52-4.9c-0.8-0.5-1.1,0.2-0.3,2.2c1.8,5,3.2,9.2-2.2,17
		c-2.4,3.4,0.3,3.8,4.2,3.4c20.1-1.8,39.8-6.4,49.2-10.1L246.4,367.9L246.4,367.9z"/>
	<path class="st3" d="M245.9,377.3c-6.1,2.4-16.8,5.4-28.9,7.5c-4.8,0.8-4.7,3.8,4,4.8c8.7,1,19.9-5.3,26.8-10.9L245.9,377.3
		L245.9,377.3z"/>
	<path class="st3" d="M256,360.1c2.2,0,6.2-0.9,10.1-1.5c7.2-1.1,1.9,10.1-10.1,10.1v3.8c12.2,0,24.9-13.3,22.2-19.3
		c-3.8-8.6-14.2-1.1-22.2-1.1c-8,0-18.5-7.4-22.2,1.1c-2.6,6,10.1,19.3,22.2,19.3v-3.8c-12,0-17.3-11.2-10.1-10.1
		C249.8,359.3,253.8,360.1,256,360.1L256,360.1z"/>
	<path class="st3" d="M265.6,367.9c15.7,7.9,35.4,5.7,52-4.9c0.8-0.5,1.1,0.2,0.3,2.2c-1.8,5-3.2,9.2,2.2,17
		c2.4,3.4-0.3,3.8-4.2,3.4c-20.1-1.8-39.8-6.4-49.2-10.1L265.6,367.9L265.6,367.9z"/>
	<path class="st3" d="M266.1,377.3c6.1,2.4,16.8,5.4,28.9,7.5c4.8,0.8,4.7,3.8-4,4.8c-8.7,1-19.9-5.3-26.8-10.9L266.1,377.3
		L266.1,377.3z"/>
	<path class="st3" d="M256.6,375.5c0.3,3,0.9,9.6,5,6.8c5.4-3.7,6.6-6.6,6.6-12c0-3.3-4.1-8.3-12.3-8.3c-8.1,0-12.3,4.9-12.3,8.3
		c0,5.4,1.3,8.4,6.6,12c4.1,2.8,4.5-3.8,5-6.8C255.6,374.5,256.5,374.8,256.6,375.5L256.6,375.5z"/>
</g>
</svg>
